<?xml version="1.0" standalone="no"?><!DOCTYPE svg PUBLIC "-//W3C//DTD SVG 1.1//EN" "http://www.w3.org/Graphics/SVG/1.1/DTD/svg11.dtd"><svg t="1727852226507" class="icon" viewBox="0 0 1024 1024" version="1.1" xmlns="http://www.w3.org/2000/svg" p-id="5138" xmlns:xlink="http://www.w3.org/1999/xlink" width="200" height="200"><path d="M689.888 458.08c19.664-25.152 55.808-30.592 82.032-11.792 26.864 19.28 32.992 56.672 13.68 83.568-0.912 1.312-1.952 2.56-3.008 3.792l8.496 6.064c57.936-80.752 40.624-193.104-37.76-255.584l5.712-7.92c3.152-4.432 2.128-10.624-2.288-13.824-4.432-3.184-10.656-2.176-13.84 2.288l-5.664 7.936c-84.304-54.272-196.304-34.672-254.272 46.096l6.208 4.448c0.832-1.376 1.696-2.768 2.656-4.096 19.312-26.88 56.72-33.024 83.552-13.744 26.88 19.296 33.056 56.672 13.728 83.552-0.928 1.344-2.016 2.608-3.04 3.808l2.512 1.776c0.832-1.376 1.664-2.752 2.624-4.08 19.296-26.88 56.704-33.024 83.568-13.728 1.008 0.72 1.984 1.568 2.944 2.336l-131.584 183.408c-11.648 16.24-34.336 19.968-50.56 8.32-1.136-0.816-2.08-1.792-3.12-2.736 18.176-16.288 23.968-51.2-1.824-70.928-36.784-28.144-68.496-60.72-96.08-96.848 18.464-28.752 20.256-64.608-6.56-91.056-25.104-24.8-75.568-29.536-99.568 0.528-17.488 21.92-32.912 42.784-46.336 63.376-8.848-41.488-20.208-81.776-26.016-50.096-10.368 56.512-72.448 36.528-72.448 36.528l57.872 66.816c-44.944 28.512-175.6 123.824-157.248 258.096l168.768 15.088c0 52.512 0 105.024 0 157.52 0 53.408 82.832 53.408 82.832 0 0-50.032 0-100.064 0-150.112l93.664 8.336c0 0 5.344-145.968-50.4-221.6 2.672-6.912 5.664-13.712 8.864-20.416 29.856 34.912 63.344 66.592 100.912 95.328 10.384 7.952 20.688 9.616 29.744 7.136 2.416 2.672 5.072 5.152 8.128 7.328 23.024 16.528 55.184 11.232 71.712-11.792l129.92-181.008C702.56 409.856 703.824 436.896 689.888 458.08z" fill="#0E0F0F" p-id="5139"></path><path d="M409.664 205.648m-78.672 0a4.917 4.917 0 1 0 157.344 0 4.917 4.917 0 1 0-157.344 0Z" fill="#0E0F0F" p-id="5140"></path><path d="M878.208 825.024c-24.896 18.512-40.032-11.728-40.032-11.728l-65.872-65.808c-2.656 0.304-5.296 0.528-7.888 0.528-30.88 0-55.424-21.504-55.808-21.808L714.096 720c1.36 1.216 23.264 20.24 50.624 19.84l-7.296-7.296c-11.456-106.576-91.104-70.384-91.104-70.384l0 20.704-28.976 12.416c-51.776 10.352 0 37.264 0 37.264 63.344-7.296 62.08 62.112 62.08 62.112l-45.552 86.96 20.688 0 58-70.368c0 0-40.896 70.368 6.896 70.368 47.808 0 88.352 0 88.352 0C902.336 852.64 905.952 774.432 878.208 825.024z" fill="#0E0F0F" p-id="5141"></path><path d="M902.112 325.936c9.296 5.328 21.12 2.128 26.448-7.152 5.328-9.264-3.696-32.48-3.696-32.48s-24.576 3.936-29.904 13.216C889.664 308.784 892.848 320.64 902.112 325.936z" fill="#0E0F0F" p-id="5142"></path><path d="M816.224 280.208c9.28 5.328 21.088 2.128 26.416-7.152 5.328-9.264-3.664-32.48-3.664-32.48s-24.592 3.968-29.92 13.216C803.712 263.072 806.96 274.912 816.224 280.208z" fill="#0E0F0F" p-id="5143"></path><path d="M605.12 203.056c9.28 5.328 21.088 2.112 26.416-7.152 5.328-9.264-3.664-32.496-3.664-32.496s-24.592 3.952-29.952 13.216C592.656 185.92 595.856 197.744 605.12 203.056z" fill="#0E0F0F" p-id="5144"></path><path d="M857.136 390.544c-5.328 9.28-2.144 21.12 7.12 26.448 9.296 5.312 21.12 2.112 26.448-7.168 5.328-9.28-3.664-32.496-3.664-32.496S862.464 381.28 857.136 390.544z" fill="#0E0F0F" p-id="5145"></path><path d="M981.664 356.24c0 0-24.624 3.92-29.952 13.216-5.296 9.248-2.096 21.104 7.184 26.416 9.296 5.312 21.12 2.112 26.416-7.168C990.64 379.424 981.664 356.24 981.664 356.24z" fill="#0E0F0F" p-id="5146"></path><path d="M894.96 480.992c-5.296 9.28-2.112 21.12 7.152 26.416 9.296 5.328 21.12 2.112 26.448-7.136 5.328-9.28-3.664-32.496-3.664-32.496S900.288 471.728 894.96 480.992z" fill="#0E0F0F" p-id="5147"></path><path d="M966.368 217.024c5.328-9.28-3.648-32.496-3.648-32.496s-24.608 3.968-29.936 13.216c-5.296 9.28-2.08 21.12 7.184 26.432C949.28 229.52 961.072 226.304 966.368 217.024z" fill="#0E0F0F" p-id="5148"></path><path d="M864.272 203.072c9.296 5.328 21.12 2.112 26.448-7.152 5.328-9.28-3.664-32.512-3.664-32.512s-24.576 3.968-29.904 13.216C851.776 185.92 855.008 197.744 864.272 203.072z" fill="#0E0F0F" p-id="5149"></path><path d="M745.04 181.952c9.264 5.328 21.088 2.128 26.416-7.152s-3.68-32.512-3.68-32.512-24.592 3.968-29.92 13.232C732.56 164.784 735.744 176.624 745.04 181.952z" fill="#0E0F0F" p-id="5150"></path></svg>