<?xml version="1.0" standalone="no"?><!DOCTYPE svg PUBLIC "-//W3C//DTD SVG 1.1//EN" "http://www.w3.org/Graphics/SVG/1.1/DTD/svg11.dtd"><svg t="1726819705772" class="icon" viewBox="0 0 1024 1024" version="1.1" xmlns="http://www.w3.org/2000/svg" p-id="12095" xmlns:xlink="http://www.w3.org/1999/xlink" width="200" height="200"><path d="M296 216m-72 0a72 72 0 1 0 144 0 72 72 0 1 0-144 0Z" fill="#FF5C3C" p-id="12096"></path><path d="M512 512m-368 0a368 368 0 1 0 736 0 368 368 0 1 0-736 0Z" fill="#FD7504" p-id="12097"></path><path d="M720 816a112 112 0 1 1-112-112 112 112 0 0 1 112 112z" fill="#FF2E04" p-id="12098"></path><path d="M512 872.64c-58.24-99.2 54.72-211.52 153.12-153.28 57.44 98.08-54.08 211.84-153.12 153.28z" fill="#FF5C3C" p-id="12099"></path><path d="M856.96 384c-421.44 0-419.52-4.96-466.88 14.56a189.44 189.44 0 0 0-62.08 41.44C265.76 502.24 198.72 496 144 496a358.4 358.4 0 0 1 16.96-96c81.92 0 104.48 5.44 126.08-16a56 56 0 0 0-39.52-96h-27.36a373.6 373.6 0 0 1 62.88-64h124.32a136.64 136.64 0 0 1 96 40 137.28 137.28 0 0 0 44.32 29.6c32.96 13.76 33.6 10.4 267.2 10.4a364.64 364.64 0 0 1 42.08 80z" fill="#FDA736" p-id="12100"></path><path d="M816 304c-234.24 0-234.4 3.36-267.2-10.4a137.28 137.28 0 0 1-44.8-29.6c-50.56-50.56-100.64-40-220.96-40A368 368 0 0 1 816 304z" fill="#FED370" p-id="12101"></path><path d="M880 512a365.92 365.92 0 0 1-8.8 80H593.92c-58.56 0-57.28-48-115.84-48-50.4 0-103.2-6.88-150.08 40S230.08 624 161.44 624A361.6 361.6 0 0 1 144 496c59.36 0 122.08 5.44 183.52-56a189.44 189.44 0 0 1 62.08-41.44C437.12 379.2 430.4 384 856.96 384a331.2 331.2 0 0 1 17.28 64H640a32 32 0 0 0 0 64z" fill="#FD8F07" p-id="12102"></path><path d="M352 664a80 40 0 1 0 160 0 80 40 0 1 0-160 0Z" fill="#FDA736" p-id="12103"></path><path d="M880 512H640a32 32 0 0 1 0-64h234.24a352 352 0 0 1 5.76 64z" fill="#FDA736" p-id="12104"></path><path d="M304 344a56.16 56.16 0 0 1-56 56h-86.56a363.84 363.84 0 0 1 58.72-112h27.84a56 56 0 0 1 56 56z" fill="#FED370" p-id="12105"></path><path d="M480 816a128 128 0 0 1 256 0c0 76.16-43.36 49.92-36.48 29.44a96 96 0 1 0-29.6 44.48 16 16 0 0 1 20.8 24.32A128 128 0 0 1 480 816zM192.8 512c-50.88 0-53.6 1.6-59.84-4.96A16 16 0 0 1 128 496a371.36 371.36 0 0 1 17.76-100.32c4.8-14.72 12-11.04 101.76-11.04a40 40 0 0 0 0-80h-27.36a16 16 0 0 1-12.16-26.4 387.84 387.84 0 0 1 65.6-66.72c6.24-4.96 0.8-3.52 134.24-3.52a151.68 151.68 0 0 1 108 44.64C562.4 299.84 605.44 288 816 288a16 16 0 0 1 13.12 6.88 384 384 0 0 1 43.36 83.52 16 16 0 0 1-15.52 21.6H512a16 16 0 0 1 0-32h321.12a346.88 346.88 0 0 0-26.08-48h-206.4c-103.84 0-104.16-80-193.28-80H288a344 344 0 0 0-34.08 32 72 72 0 0 1-6.56 144h-74.08a349.44 349.44 0 0 0-11.84 64c46.88 0 101.28 2.72 155.2-51.36A208 208 0 0 1 446.72 368a16 16 0 0 1 2.56 32 173.92 173.92 0 0 0-109.92 50.72A206.4 206.4 0 0 1 192.8 512z" fill="#35214C" p-id="12106"></path><path d="M231.36 640c-71.52 0-80 3.68-85.12-11.04A378.88 378.88 0 0 1 128 495.04c2.4-38.24 102.08 19.84 188.16-66.4A208 208 0 0 1 446.72 368a16 16 0 0 1 2.56 32 173.92 173.92 0 0 0-109.92 50.72C279.04 512 216.96 512 160 512a352 352 0 0 0 13.28 96c58.24 0 101.44 6.72 144-35.36A152.64 152.64 0 0 1 424.64 528c50.88 0 88-6.08 122.72 28.64A65.44 65.44 0 0 0 593.92 576h264.16a344.64 344.64 0 0 0 5.92-48H640a48 48 0 0 1-33.76-82.08C624 427.52 642.56 432 704 432a16 16 0 0 1 0 32c-65.92 0-68.8-1.92-75.04 4.64A16 16 0 0 0 640 496h240a16 16 0 0 1 16 16 384.96 384.96 0 0 1-9.12 83.52 16 16 0 0 1-16 12.48H593.92a97.92 97.92 0 0 1-69.28-28.64C499.84 554.56 473.76 560 424.64 560 336 560 336 640 231.36 640z" fill="#35214C" p-id="12107"></path><path d="M874.24 464H768a16 16 0 0 1 0-32h86.72a304.96 304.96 0 0 0-8.96-32H512a16 16 0 0 1 0-32c371.36 0 354.24-4.32 359.84 10.24a361.92 361.92 0 0 1 18.24 67.2 16 16 0 0 1-15.84 18.56zM167.36 680.96a345.28 345.28 0 0 1-21.12-52.16 16 16 0 0 1 30.4-9.6 340.96 340.96 0 0 0 19.2 48 16 16 0 0 1-28.48 13.76zM502.88 888.96A128 128 0 1 1 736 816a16 16 0 0 1-32 0 96 96 0 1 0-174.88 55.2 16 16 0 0 1-26.24 17.76zM225.76 248c-16 0-17.76-16-17.76-32a88.16 88.16 0 0 1 118.56-82.56 16 16 0 0 1-11.2 29.92 56 56 0 0 0-73.92 64.96 16 16 0 0 1-15.68 19.68zM432 720c-96 0-122.08-64-68.96-96a16 16 0 0 1 16 27.52c-6.88 4-11.36 8.96-11.36 12.32C368 672 392.32 688 432 688s64-16 64-24-24.32-24-64-24a16 16 0 0 1 0-32c128 0 128 112 0 112z" fill="#35214C" p-id="12108"></path><path d="M432 784H247.84a16 16 0 0 1 0-32H432a16 16 0 0 1 0 32zM850.72 672H720a16 16 0 0 1 0-32h130.72a16 16 0 0 1 0 32z" fill="#FDA736" p-id="12109"></path><path d="M880 528H640a48 48 0 0 1 0-96h64a16 16 0 0 1 0 32h-64a16 16 0 0 0 0 32h224c0-10.72-1.6-21.44-3.04-32H768a16 16 0 0 1 0-32h106.24a16 16 0 0 1 16 13.12A368 368 0 0 1 896 512a16 16 0 0 1-16 16zM248 416c-91.36 0-92.96 2.4-99.52-6.56a16 16 0 0 1-2.24-14.24A379.2 379.2 0 0 1 208 278.24c6.72-8.8 16-6.24 40.48-6.24a72 72 0 0 1 50.72 122.88A70.4 70.4 0 0 1 248 416z m-64-32c64.96 0 77.12 3.68 92.16-11.68A40 40 0 0 0 248 304h-19.84a346.56 346.56 0 0 0-44.16 80z" fill="#35214C" p-id="12110"></path><path d="M720 224h-128a16 16 0 0 1 0-32h128a16 16 0 0 1 0 32z" fill="#FD8F07" p-id="12111"></path><path d="M816 320c-232.48 0-236.48 3.68-273.44-11.68a153.92 153.92 0 0 1-49.44-32.96A119.2 119.2 0 0 0 407.36 240h-124.32a16 16 0 0 1-9.92-28.48A382.72 382.72 0 0 1 478.72 129.6 16 16 0 0 1 496 144c2.4 30.08-38.72 4.8-132 48q-14.88 7.04-29.28 16c73.28 0 128-8.32 180.64 44.64C561.76 299.2 606.08 288 784 288a352 352 0 0 0-240-126.56 16 16 0 0 1 2.56-32A384 384 0 0 1 828.8 295.04 16 16 0 0 1 816 320zM741.76 778.72a353.6 353.6 0 0 0 113.76-190.08 16 16 0 0 1 32 6.72 384 384 0 0 1-124.32 208 16 16 0 0 1-21.44-24.64zM461.92 892.8A384 384 0 0 1 200.64 736a16 16 0 0 1 26.08-18.56 352 352 0 0 0 240 144 16 16 0 0 1-4.8 31.36z" fill="#35214C" p-id="12112"></path></svg>