<?xml version="1.0" standalone="no"?><!DOCTYPE svg PUBLIC "-//W3C//DTD SVG 1.1//EN" "http://www.w3.org/Graphics/SVG/1.1/DTD/svg11.dtd"><svg t="1726819695248" class="icon" viewBox="0 0 1024 1024" version="1.1" xmlns="http://www.w3.org/2000/svg" p-id="10928" xmlns:xlink="http://www.w3.org/1999/xlink" width="200" height="200"><path d="M880 560a368 368 0 0 1-672 208c-164.32-238.72 3.84-576 304-576a368 368 0 0 1 368 368z" fill="#6163AA" p-id="10929"></path><path d="M784 464c0 298.24-335.04 468.96-576 304-164.32-238.72 3.84-576 304-576a364.96 364.96 0 0 1 208 64 364.96 364.96 0 0 1 64 208z" fill="#898EC9" p-id="10930"></path><path d="M416 256m-112 0a112 112 0 1 0 224 0 112 112 0 1 0-224 0Z" fill="#D82FEA" p-id="10931"></path><path d="M416 384a128 128 0 0 1-128-128 16 16 0 0 1 32 0 96 96 0 0 0 192 0c0-102.4-140.64-133.6-183.36-39.84a16 16 0 0 1-29.12-13.12C356.32 78.08 544 119.2 544 256a128 128 0 0 1-128 128z" fill="#35214C" p-id="10932"></path><path d="M416 384a128 128 0 0 1-128-128 16 16 0 0 1 32 0 96 96 0 1 0 174.88-55.2 16 16 0 0 1 26.24-18.24A128 128 0 0 1 416 384z" fill="#35214C" p-id="10933"></path><path d="M633.6 840a16 16 0 0 1-7.2-30.24A636 636 0 0 0 862.4 608a16 16 0 0 1 26.56 17.92C800 755.2 651.68 840 633.6 840zM518.88 880c-73.6 12.16-154.24 1.76-195.04-59.2a379.36 379.36 0 0 0 56 9.92c32 20.32 78.56 27.2 133.6 17.76a16 16 0 0 1 5.44 31.52z" fill="#513F89" p-id="10934"></path><path d="M379.84 830.24a379.36 379.36 0 0 1-56-9.92 133.92 133.92 0 0 1-20.8-52.32 16 16 0 0 1 32-5.44 98.88 98.88 0 0 0 44.8 67.68zM304.96 707.68c27.52-123.52 181.76-247.68 302.08-256a16 16 0 0 1 2.24 32C501.12 491.04 360.16 608 336 714.72a16 16 0 0 1-31.04-7.04zM686.88 501.92c-8.8 0-9.44-5.28-23.52-11.2a16 16 0 0 1 12.48-29.44c44.16 18.72 24.96 40.64 11.04 40.64zM522.08 739.68c-66.08 0-42.56-42.56-21.92-35.36 72.64 24.96 213.44-89.76 199.36-168.64a16 16 0 0 1 12.8-18.56c42.56-7.84 27.04 132.16-114.72 202.88a173.44 173.44 0 0 1-75.52 19.68z" fill="#68539B" p-id="10935"></path><path d="M461.44 697.44c-32 0-22.56-93.6 72.64-140.96 43.68-21.6 97.44-18.08 105.44 26.88a16 16 0 0 1-32 5.76c-3.84-20.96-39.36-14.08-59.68-3.84-48 23.52-75.84 68.16-71.36 93.28a16 16 0 0 1-15.04 18.88zM134.72 491.84a517.44 517.44 0 0 1 148.8-173.12 16 16 0 0 1 19.52 25.28 488.64 488.64 0 0 0-139.2 161.12 16 16 0 1 1-29.12-13.28zM392.64 463.04a33.44 33.44 0 0 1-36.96-30.24 16 16 0 0 1 32-2.56c0.8 9.12 64.96-16 87.84-57.92a16 16 0 0 1 21.6-6.56c33.92 18.24-52.16 97.28-104.48 97.28z" fill="#68539B" p-id="10936"></path><path d="M352 528c-89.44 0-73.12-98.88-45.28-98.88a16 16 0 0 1 14.08 23.68c-24 59.04 56.32 49.12 115.04 17.12a16 16 0 0 1 16 28.16A217.12 217.12 0 0 1 352 528zM343.68 410.72a16 16 0 0 1-11.36-26.72c3.2-3.2 6.72-6.4 10.24-9.6a16 16 0 0 1 21.44 23.68c-9.28 7.84-12 12.64-20.32 12.64zM522.72 407.52c43.84-42.24 69.28-87.52 66.88-118.24a43.84 43.84 0 0 0-35.68-40.96 16 16 0 0 1 8.32-30.88 75.2 75.2 0 0 1 59.36 69.28c3.36 41.12-24.64 93.6-76.8 144a16 16 0 0 1-22.08-23.2z" fill="#68539B" p-id="10937"></path><path d="M741.28 644c1.12-0.96 106.08-96 111.04-176a16 16 0 0 1 16.96-15.04c44.96 2.72-13.6 132.8-106.72 215.52a16 16 0 0 1-21.28-24.48z" fill="#513F89" p-id="10938"></path><path d="M628 373.44c7.68-8.8 77.6-87.36 133.92-94.72a16 16 0 0 1 4.16 32c-37.76 4.8-95.04 62.24-114.08 84a16 16 0 0 1-24-21.28zM150.08 669.44c37.28-58.88 110.4-105.12 113.44-107.04a16 16 0 0 1 16.96 27.2s-70.08 44.16-103.52 97.12a16 16 0 0 1-26.88-17.28z" fill="#68539B" p-id="10939"></path><path d="M384 224h-68.64a16 16 0 0 1 0-32H384a16 16 0 0 1 0 32zM432 336h-32a16 16 0 0 1 0-32h32a16 16 0 0 1 0 32zM528 288h-112a16 16 0 0 1 0-32h112a16 16 0 0 1 0 32z" fill="#E667F9" p-id="10940"></path><path d="M197.44 780.32a384 384 0 0 1 64-512 16 16 0 0 1 20.8 24.32A352 352 0 0 0 224 761.76a16 16 0 0 1-26.56 18.56zM512 944a380.32 380.32 0 0 1-273.28-114.4 16 16 0 0 1 22.72-22.4C480 1029.12 864 876.16 864 560c0-96-34.72-121.12-7.36-130.24a16 16 0 0 1 20.16 10.24A384 384 0 0 1 512 944zM822.24 393.76a352 352 0 0 0-264.32-182.88 16 16 0 0 1 4.16-32 384 384 0 0 1 288 199.52 16 16 0 0 1-27.84 15.36z" fill="#35214C" p-id="10941"></path><path d="M416 384a128 128 0 0 1-128-128 16 16 0 0 1 32 0 96 96 0 0 0 192 0c0-102.4-140.64-133.6-183.36-39.84a16 16 0 0 1-29.12-13.12C356.32 78.08 544 119.2 544 256a128 128 0 0 1-128 128z" fill="#35214C" p-id="10942"></path></svg>